<svg width="35" height="18" fill="none" xmlns="http://www.w3.org/2000/svg"><path d="M29.043 8.593c.798 0 1.532-.364 2.203-1.048.134.24.199.514.189.79a2.719 2.719 0 0 1-.189.897l.043.065c1.258-.065 1.992-.427 2.727-1.005.084.536.084.773.084 1.414 0 2.738-2.413 5.364-5.604 5.364-3.144 0-5.58-2.607-5.58-5.62h-.336c-.21.576-.294 1.196-.21 2.03-3.504 1.432-4.448 3.719-4.448 5.92h-2.118a9.724 9.724 0 0 1 .315-3.526c.272-.962.776-2.202 1.72-3.164l-.273-.3c-1.258 1.027-1.468 1.412-2.56 2.865-.901.193-1.658.727-2.937.727-.818 0-1.678-.128-3.063-.791.4-.706.671-1.346.734-2.522h-.42c-.838 3.484-4.154 4.06-5.58 4.318-1.258.213-1.7 1.175-1.7 2.115a1.47 1.47 0 0 0 .02.278H.864a7.016 7.016 0 0 1-.063-.94c0-.684.042-1.369.357-1.945 1.135-1.947 2.079-2.674 2.079-4.168 0-1.54-1.112-2.563-1.175-2.629.65-.109.882-.75 1.322-1.433.965-1.518 2.58-1.753 3.42-1.753.818 0 1.3.107 2.119.107 3.755 0 5.644-4.34 10.218-4.34 2.896 0 4.889 2.138 5.182 4.894l.063.021c.378-.427 1.03-1.005 1.784-1.261 0 .107-.021.233-.021.363 0 2.054.546 4.277 2.895 4.277ZM9.32 17.398H7.411c-.65-.62-1.07-1.56-1.175-2.097 1.175-.512 1.7-.897 2.35-1.539l.378.3a2.766 2.766 0 0 0-.357 1.389c0 .472 0 .75.713 1.947Zm11.478 0h-1.72c0-2.35.67-3.184 1.636-4.125l.294.233c-.4.898-.441 1.517-.441 2.116 0 .772.084 1.285.23 1.776Z" fill="url(#a)"/><defs><radialGradient id="a" cx="0" cy="0" r="1" gradientUnits="userSpaceOnUse" gradientTransform="matrix(33.29997 17.09997 -13.89746 27.06348 .8 .3)"><stop stop-color="#FFDE7E"/><stop offset="1" stop-color="#FF8A00"/></radialGradient></defs></svg>