<svg width="190" height="32" viewBox="0 0 190 32" fill="none" xmlns="http://www.w3.org/2000/svg">
<path d="M66.5821 29V2.98327H76.4392C78.2713 2.98327 79.847 3.30085 81.1661 3.936C82.4853 4.57115 83.4991 5.48723 84.2075 6.68424C84.9404 7.85683 85.3068 9.24927 85.3068 10.8616C85.3068 12.0342 85.0259 13.0846 84.464 14.0129C83.9266 14.9168 83.2304 15.6374 82.3754 16.1749C81.5204 16.7123 80.6287 17.0054 79.7004 17.0543L79.4806 16.7245C81.0684 16.7245 82.3143 17.0909 83.2182 17.8238C84.1465 18.5567 84.6839 19.7293 84.8305 21.3416L85.5633 29H82.3754L81.7158 21.6713C81.6181 20.5965 81.2272 19.8025 80.5432 19.2895C79.8836 18.7765 78.7965 18.52 77.282 18.52H69.7334V29H66.5821ZM69.7334 15.442H76.8422C78.4301 15.442 79.6882 15.0389 80.6165 14.2328C81.5448 13.4266 82.0089 12.2785 82.0089 10.7883C82.0089 9.2737 81.5326 8.11333 80.5799 7.30718C79.6271 6.4766 78.2469 6.06131 76.4392 6.06131H69.7334V15.442ZM90.7621 29V2.98327H93.8401V13.8663L93.4737 13.793C93.718 12.7182 94.1333 11.8387 94.7196 11.1547C95.3059 10.4707 96.0265 9.96992 96.8815 9.65235C97.7365 9.31034 98.677 9.13934 99.7031 9.13934C101.096 9.13934 102.268 9.45692 103.221 10.0921C104.198 10.7028 104.931 11.57 105.419 12.6937C105.932 13.793 106.189 15.0633 106.189 16.5046V29H103.111V17.3841C103.111 15.5031 102.769 14.1106 102.085 13.2067C101.425 12.3029 100.411 11.8509 99.0435 11.8509C97.48 11.8509 96.2219 12.3273 95.2692 13.28C94.3165 14.2328 93.8401 15.613 93.8401 17.4207V29H90.7621ZM111.696 29V9.57906H114.774V29H111.696ZM111.623 6.53767V2.94663H114.847V6.53767H111.623ZM121 29V9.57906H123.821L123.931 14.5259L123.565 14.1961C123.809 13.048 124.237 12.1074 124.848 11.3746C125.458 10.6173 126.191 10.0554 127.046 9.68899C127.926 9.32256 128.866 9.13934 129.868 9.13934C131.358 9.13934 132.579 9.46913 133.532 10.1287C134.509 10.7883 135.23 11.6799 135.694 12.8037C136.182 13.903 136.427 15.1366 136.427 16.5046V29H133.349V17.3841C133.349 16.1871 133.202 15.1855 132.909 14.3793C132.64 13.5488 132.201 12.9258 131.59 12.5105C130.979 12.0708 130.185 11.8509 129.208 11.8509C127.718 11.8509 126.484 12.3273 125.507 13.28C124.554 14.2083 124.078 15.5763 124.078 17.3841V29H121ZM149.447 29.4397C147.664 29.4397 146.101 29.0244 144.757 28.1938C143.414 27.3633 142.375 26.1907 141.642 24.6761C140.91 23.1371 140.543 21.3416 140.543 19.2895C140.543 17.2131 140.91 15.4176 141.642 13.903C142.375 12.3884 143.414 11.2158 144.757 10.3852C146.101 9.55463 147.664 9.13934 149.447 9.13934C151.231 9.13934 152.782 9.55463 154.101 10.3852C155.445 11.2158 156.483 12.3884 157.216 13.903C157.949 15.4176 158.315 17.2131 158.315 19.2895C158.315 21.3416 157.949 23.1371 157.216 24.6761C156.483 26.1907 155.445 27.3633 154.101 28.1938C152.782 29.0244 151.231 29.4397 149.447 29.4397ZM149.447 26.5083C151.231 26.5083 152.611 25.8731 153.588 24.6028C154.59 23.3081 155.091 21.537 155.091 19.2895C155.091 17.0421 154.59 15.2832 153.588 14.0129C152.611 12.7182 151.231 12.0708 149.447 12.0708C147.664 12.0708 146.272 12.7182 145.27 14.0129C144.269 15.2832 143.768 17.0421 143.768 19.2895C143.768 21.537 144.269 23.3081 145.27 24.6028C146.272 25.8731 147.664 26.5083 149.447 26.5083ZM161.549 29V24.8593H165.689V29H161.549ZM170.857 29V7.82019C170.857 6.37888 171.272 5.21851 172.102 4.33907C172.933 3.43521 174.228 2.98327 175.987 2.98327H179.065V5.69487H176.206C175.449 5.69487 174.875 5.90252 174.484 6.31781C174.118 6.7331 173.935 7.30718 173.935 8.04005V29H170.857ZM168.218 12.2907V9.57906H178.808V12.2907H168.218ZM182.839 29V9.57906H185.917V29H182.839ZM182.766 6.53767V2.94663H185.99V6.53767H182.766Z" fill="white"/>
<path d="M14.1652 29.2793H0.882812V23.2466C0.882812 12.0731 9.94076 3.01514 21.1143 3.01514H25.5299C27.5607 3.01514 29.2069 4.66138 29.2069 6.69212V8.52767C29.2069 12.5908 32.5007 15.8846 36.5638 15.8846C38.1891 15.8846 39.5066 17.2021 39.5066 18.8273V27.5322C39.5066 28.4971 38.7244 29.2793 37.7594 29.2793H28.4283C28.0314 29.2793 27.7097 28.9576 27.7097 28.5607V23.3572C27.7097 19.617 24.6777 16.585 20.9375 16.585H19.8558C16.7129 16.585 14.1652 19.1327 14.1652 22.2755V29.2793Z" fill="#EF5801"/>
<path d="M50.4398 3.01805H59.5898V6.31299C59.5898 14.4479 52.9952 21.0425 44.8604 21.0425H43.3865C42.5735 21.0425 41.9145 20.3834 41.9145 19.5705V19.4775C41.9145 15.4641 38.6609 12.2105 34.6475 12.2105C33.4434 12.2105 32.4674 11.2344 32.4674 10.0304V4.55013C32.4674 3.70399 33.1533 3.01805 33.9995 3.01805H41.4213C41.6937 3.01805 41.9145 3.23883 41.9145 3.51118V7.46721C41.9145 9.82141 43.8229 11.7299 46.1771 11.7299H46.5345C48.6913 11.7299 50.4398 9.9814 50.4398 7.82457V3.01805Z" fill="#EF5801"/>
</svg>
