<svg width="7389" height="1268" viewBox="0 0 7389 1268" fill="none" xmlns="http://www.w3.org/2000/svg">
<path d="M2582.36 1145V122.274H2969.84C3041.86 122.274 3103.8 134.758 3155.66 159.726C3207.52 184.694 3247.37 220.706 3275.22 267.761C3304.03 313.855 3318.43 368.593 3318.43 431.973C3318.43 478.068 3307.39 519.361 3285.3 555.853C3264.17 591.384 3236.81 619.713 3203.19 640.84C3169.58 661.966 3134.53 673.49 3098.04 675.411L3089.4 662.446C3151.82 662.446 3200.79 676.851 3236.33 705.66C3272.82 734.469 3293.94 780.564 3299.71 843.944L3328.51 1145H3203.19L3177.27 856.908C3173.43 814.655 3158.06 783.445 3131.17 763.279C3105.24 743.112 3062.51 733.029 3002.97 733.029H2706.24V1145H2582.36ZM2706.24 612.03H2985.69C3048.11 612.03 3097.56 596.185 3134.05 564.495C3170.54 532.805 3188.79 487.671 3188.79 429.092C3188.79 369.553 3170.06 323.939 3132.61 292.249C3095.16 259.598 3040.9 243.273 2969.84 243.273H2706.24V612.03ZM3532.88 1145V122.274H3653.88V550.091L3639.47 547.21C3649.08 504.956 3665.4 470.385 3688.45 443.497C3711.5 416.608 3739.83 396.922 3773.44 384.438C3807.05 370.994 3844.02 364.271 3884.35 364.271C3939.09 364.271 3985.18 376.755 4022.64 401.723C4061.05 425.731 4089.86 459.822 4109.06 503.996C4129.23 547.21 4139.31 597.146 4139.31 653.804V1145H4018.31V688.375C4018.31 614.431 4004.87 559.694 3977.98 524.162C3952.05 488.631 3912.2 470.865 3858.42 470.865C3796.96 470.865 3747.51 489.591 3710.06 527.043C3672.6 564.495 3653.88 618.753 3653.88 689.815V1145H3532.88ZM4355.8 1145V381.557H4476.8V1145H4355.8ZM4352.92 261.999V120.834H4479.68V261.999H4352.92ZM4721.54 1145V381.557H4832.45L4836.78 576.019L4822.37 563.055C4831.97 517.92 4848.78 480.949 4872.79 452.139C4896.79 422.37 4925.6 400.283 4959.21 385.878C4993.79 371.474 5030.76 364.271 5070.13 364.271C5128.71 364.271 5176.72 377.236 5214.18 403.164C5252.59 429.092 5280.92 464.143 5299.16 508.317C5318.37 551.531 5327.97 600.027 5327.97 653.804V1145H5206.97V688.375C5206.97 641.32 5201.21 601.947 5189.69 570.257C5179.12 537.607 5161.84 513.119 5137.83 496.794C5113.82 479.508 5082.61 470.865 5044.2 470.865C4985.62 470.865 4937.13 489.591 4898.72 527.043C4861.26 563.535 4842.54 617.312 4842.54 688.375V1145H4721.54ZM5839.82 1162.29C5769.72 1162.29 5708.26 1145.96 5655.44 1113.31C5602.62 1080.66 5561.81 1034.56 5533 975.026C5504.19 914.527 5489.79 843.944 5489.79 763.279C5489.79 681.653 5504.19 611.07 5533 551.531C5561.81 491.992 5602.62 445.897 5655.44 413.247C5708.26 380.597 5769.72 364.271 5839.82 364.271C5909.92 364.271 5970.9 380.597 6022.76 413.247C6075.57 445.897 6116.39 491.992 6145.2 551.531C6174.01 611.07 6188.41 681.653 6188.41 763.279C6188.41 843.944 6174.01 914.527 6145.2 975.026C6116.39 1034.56 6075.57 1080.66 6022.76 1113.31C5970.9 1145.96 5909.92 1162.29 5839.82 1162.29ZM5839.82 1047.05C5909.92 1047.05 5964.18 1022.08 6002.59 972.145C6041.96 921.249 6061.65 851.627 6061.65 763.279C6061.65 674.93 6041.96 605.788 6002.59 555.853C5964.18 504.956 5909.92 479.508 5839.82 479.508C5769.72 479.508 5714.98 504.956 5675.61 555.853C5636.23 605.788 5616.55 674.93 5616.55 763.279C5616.55 851.627 5636.23 921.249 5675.61 972.145C5714.98 1022.08 5769.72 1047.05 5839.82 1047.05ZM6315.52 1145V982.228H6478.29V1145H6315.52ZM6681.42 1145V312.415C6681.42 255.757 6697.74 210.142 6730.39 175.571C6763.04 140.04 6813.94 122.274 6883.08 122.274H7004.08V228.868H6891.72C6861.96 228.868 6839.39 237.031 6824.02 253.356C6809.62 269.681 6802.42 292.249 6802.42 321.058V1145H6681.42ZM6577.7 488.151V381.557H6994V488.151H6577.7ZM7152.45 1145V381.557H7273.45V1145H7152.45ZM7149.57 261.999V120.834H7276.33V261.999H7149.57Z" fill="#E5E5E5"/>
<path d="M522.135 1150.99H0V913.844C0 474.608 356.071 118.537 795.306 118.537H968.886C1048.71 118.537 1113.43 183.251 1113.43 263.08V335.237C1113.43 494.959 1242.91 624.439 1402.63 624.439C1466.52 624.439 1518.31 676.231 1518.31 740.12V1082.31C1518.31 1120.24 1487.56 1150.99 1449.63 1150.99H1082.82C1067.22 1150.99 1054.57 1138.34 1054.57 1122.74V918.191C1054.57 771.161 935.384 651.971 788.354 651.971H745.833C622.288 651.971 522.135 752.124 522.135 875.669V1150.99Z" fill="#E96C19"/>
<path d="M1948.14 118.554H2307.83V248.079C2307.83 567.863 2048.6 827.1 1728.81 827.1L1670.87 827.1C1638.92 827.1 1613.01 801.193 1613.01 769.235V765.58C1613.01 607.81 1485.11 479.912 1327.34 479.912C1280.01 479.912 1241.64 441.543 1241.64 394.212V178.78C1241.64 145.518 1268.61 118.554 1301.87 118.554H1593.63C1604.33 118.554 1613.01 127.233 1613.01 137.939V293.452C1613.01 385.996 1688.03 461.018 1780.58 461.018H1794.62C1879.41 461.018 1948.14 392.285 1948.14 307.499V118.554Z" fill="#E96C19"/>
</svg>
