<svg width="509" height="129" viewBox="0 0 509 129" fill="none" xmlns="http://www.w3.org/2000/svg">
<path d="M112.442 62.9769C115.427 62.9769 118.175 61.6165 120.687 59.0529C121.187 59.9534 121.431 60.9775 121.394 62.0111C121.35 63.164 121.111 64.3005 120.687 65.3705L120.846 65.6103C125.554 65.3705 128.304 64.0123 131.054 61.852C131.368 63.8554 131.368 64.7448 131.368 67.1428C131.368 77.3887 122.337 87.2205 110.396 87.2205C98.6252 87.2205 89.5085 77.4607 89.5085 66.1814H88.2523C87.4669 68.3418 87.1523 70.6613 87.4669 73.7809C74.3525 79.1414 70.8192 87.7001 70.8192 95.9382H62.8924C62.4739 91.5027 62.8731 87.0266 64.0694 82.7406C65.0903 79.1414 66.9757 74.5003 70.5089 70.9011L69.4881 69.7806C64.7799 73.6217 63.9903 75.0605 59.907 80.4996C56.5321 81.2212 53.7008 83.2202 48.9134 83.2202C45.851 83.2202 42.6323 82.7406 37.449 80.2598C38.9471 77.6198 39.9615 75.2218 40.1969 70.8226H38.6261C35.4866 83.8611 23.0784 86.0193 17.7389 86.9807C13.0308 87.7807 11.3786 91.3799 11.3786 94.8984C11.3714 95.2467 11.3972 95.595 11.4557 95.9382H6.97222C6.81503 94.7722 6.73638 93.5967 6.73682 92.4197C6.73682 89.8604 6.89304 87.2989 8.07222 85.1408C12.3224 77.8553 15.8535 75.1346 15.8535 69.5408C15.8535 63.7813 11.6911 59.9489 11.4557 59.7025C13.8911 59.2949 14.7557 56.8969 16.4035 54.3376C20.016 48.6565 26.0617 47.778 29.2033 47.778C32.2658 47.778 34.072 48.1769 37.1345 48.1769C51.1905 48.1769 58.2591 31.9382 75.3776 31.9382C86.215 31.9382 93.6752 39.9388 94.7731 50.2501L95.0085 50.3308C96.4231 48.7307 98.8607 46.5703 101.683 45.6111C101.683 46.0122 101.606 46.4831 101.606 46.9714C101.606 54.6559 103.648 62.9769 112.442 62.9769ZM38.6261 95.9317H31.4804C29.0471 93.6122 27.4763 90.0937 27.0825 88.0837C31.4804 86.1654 33.445 84.7244 35.8782 82.3242L37.2928 83.4447C36.3995 85.0251 35.9384 86.8205 35.9574 88.644C35.9574 90.412 35.9574 91.4518 38.6261 95.9317ZM81.5817 95.9317H75.1422C75.1422 87.1333 77.6546 84.0137 81.2671 80.493L82.3671 81.365C80.869 84.7244 80.7171 87.0439 80.7171 89.2849C80.7171 92.1734 81.0317 94.0918 81.5817 95.9317Z" fill="url(#paint0_radial_616_25716)"/>
<path d="M161.535 102V48.1053H172.745V53.8181C174.613 51.5905 176.913 49.8299 179.643 48.5364C182.374 47.2429 185.32 46.5962 188.482 46.5962C190.494 46.5962 192.488 46.8657 194.464 47.4046L189.991 58.7225C188.59 58.1836 187.189 57.9141 185.787 57.9141C183.416 57.9141 181.242 58.5069 179.266 59.6926C177.29 60.8424 175.709 62.4053 174.523 64.3815C173.338 66.3576 172.745 68.5493 172.745 70.9566V102H161.535ZM253.404 68.208V102H242.194V70.9566C242.194 68.5493 241.601 66.3576 240.415 64.3815C239.266 62.4053 237.703 60.8424 235.727 59.6926C233.786 58.5069 231.595 57.9141 229.151 57.9141C226.78 57.9141 224.606 58.5069 222.63 59.6926C220.654 60.8424 219.073 62.4053 217.887 64.3815C216.702 66.3576 216.109 68.5493 216.109 70.9566V102H204.899V21.1579H216.109V53.8181C217.977 51.5905 220.277 49.8299 223.007 48.5364C225.738 47.2429 228.684 46.5962 231.846 46.5962C235.834 46.5962 239.463 47.5663 242.733 49.5065C246.003 51.4467 248.59 54.0516 250.494 57.3213C252.434 60.5909 253.404 64.2198 253.404 68.208ZM268.474 48.1053H279.684V102H268.474V48.1053ZM274.186 40.2905C272.462 40.2905 271.025 39.7336 269.875 38.6198C268.725 37.506 268.15 36.1047 268.15 34.416C268.15 32.7632 268.725 31.3799 269.875 30.2661C271.025 29.1163 272.444 28.5415 274.133 28.5415C275.785 28.5415 277.187 29.1163 278.336 30.2661C279.486 31.3799 280.061 32.7632 280.061 34.416C280.061 36.1047 279.486 37.506 278.336 38.6198C277.223 39.7336 275.839 40.2905 274.186 40.2905ZM344.975 68.208V102H333.765V70.9566C333.765 68.5493 333.172 66.3576 331.986 64.3815C330.836 62.4053 329.273 60.8424 327.297 59.6926C325.357 58.5069 323.165 57.9141 320.722 57.9141C318.351 57.9141 316.177 58.5069 314.201 59.6926C312.225 60.8424 310.644 62.4053 309.458 64.3815C308.272 66.3576 307.679 68.5493 307.679 70.9566V102H296.469V48.1053H307.679V53.8181C309.548 51.5905 311.847 49.8299 314.578 48.5364C317.309 47.2429 320.255 46.5962 323.417 46.5962C327.405 46.5962 331.034 47.5663 334.303 49.5065C337.573 51.4467 340.16 54.0516 342.064 57.3213C344.005 60.5909 344.975 64.2198 344.975 68.208ZM382.705 103.401C377.747 103.401 373.22 102.126 369.124 99.5747C365.064 97.0237 361.812 93.6104 359.369 89.3347C356.961 85.0232 355.758 80.2625 355.758 75.0526C355.758 71.1004 356.458 67.4175 357.86 64.0042C359.261 60.5549 361.183 57.5368 363.626 54.9499C366.106 52.327 368.98 50.279 372.25 48.8059C375.519 47.3328 379.004 46.5962 382.705 46.5962C387.663 46.5962 392.173 47.8717 396.233 50.4227C400.329 52.9738 403.58 56.4051 405.988 60.7166C408.431 65.0282 409.653 69.8069 409.653 75.0526C409.653 78.969 408.952 82.6338 407.551 86.0472C406.149 89.4605 404.209 92.4786 401.73 95.1015C399.287 97.6884 396.43 99.7185 393.161 101.192C389.927 102.665 386.442 103.401 382.705 103.401ZM382.705 92.1912C385.687 92.1912 388.364 91.4007 390.735 89.8198C393.107 88.2389 394.975 86.1549 396.341 83.568C397.742 80.9451 398.442 78.1067 398.442 75.0526C398.442 71.9267 397.724 69.0523 396.287 66.4295C394.885 63.8066 392.999 61.7227 390.628 60.1777C388.256 58.5968 385.615 57.8063 382.705 57.8063C379.759 57.8063 377.082 58.5968 374.675 60.1777C372.303 61.7586 370.417 63.8605 369.016 66.4834C367.651 69.1062 366.968 71.9627 366.968 75.0526C366.968 78.2504 367.686 81.1427 369.124 83.7297C370.561 86.3166 372.465 88.3826 374.837 89.9276C377.244 91.4366 379.867 92.1912 382.705 92.1912ZM426.285 103.401C424.632 103.401 423.231 102.826 422.081 101.677C420.967 100.527 420.41 99.1256 420.41 97.4728C420.41 95.856 420.967 94.4727 422.081 93.3229C423.231 92.1732 424.632 91.5983 426.285 91.5983C427.938 91.5983 429.339 92.1732 430.489 93.3229C431.639 94.4727 432.213 95.856 432.213 97.4728C432.213 99.1256 431.639 100.527 430.489 101.677C429.339 102.826 427.938 103.401 426.285 103.401ZM463.36 35.8712V48.1053H478.559V59.3154H463.36V102H452.15V59.3154H445.737V48.1053H452.15V35.8712C452.15 32.9249 452.869 30.2481 454.306 27.8408C455.743 25.3976 457.665 23.4574 460.073 22.0202C462.516 20.583 465.229 19.8644 468.211 19.8644C470.367 19.8644 472.469 20.2956 474.517 21.1579C476.565 22.0202 478.397 23.3496 480.014 25.1461L471.983 33.0686C471.588 32.4219 471.031 31.9368 470.313 31.6135C469.63 31.2542 468.929 31.0745 468.211 31.0745C466.881 31.0745 465.732 31.5416 464.762 32.4758C463.827 33.41 463.36 34.5417 463.36 35.8712ZM491.189 48.1053H502.399V102H491.189V48.1053ZM496.902 40.2905C495.178 40.2905 493.74 39.7336 492.591 38.6198C491.441 37.506 490.866 36.1047 490.866 34.416C490.866 32.7632 491.441 31.3799 492.591 30.2661C493.74 29.1163 495.16 28.5415 496.848 28.5415C498.501 28.5415 499.902 29.1163 501.052 30.2661C502.202 31.3799 502.777 32.7632 502.777 34.416C502.777 36.1047 502.202 37.506 501.052 38.6198C499.938 39.7336 498.555 40.2905 496.902 40.2905Z" fill="#F2F2F2"/>
<defs>
<radialGradient id="paint0_radial_616_25716" cx="0" cy="0" r="1" gradientUnits="userSpaceOnUse" gradientTransform="translate(6.73682 31.9382) rotate(27.1811) scale(140.104 113.865)">
<stop stop-color="#FED681"/>
<stop offset="1" stop-color="#F25E40"/>
</radialGradient>
</defs>
</svg>
