<svg xmlns="http://www.w3.org/2000/svg" width="152" height="38" fill="none">
    <path fill="url(#logo-light-rhino)" d="M33.3811 18.5478c.8863 0 1.7021-.4039 2.4479-1.1649.1484.2673.221.5713.2097.8782-.013.3422-.0839.6796-.2097.9973l.0471.0712c1.3977-.0712 2.2141-.4744 3.0305-1.1158.0934.5948.0934.8588.0934 1.5707 0 3.0418-2.6811 5.9606-6.2263 5.9606-3.4943 0-6.2008-2.8974-6.2008-6.246h-.373c-.2332.6414-.3266 1.33-.2332 2.2561-3.8933 1.5914-4.9422 4.1323-4.9422 6.578h-2.3533c-.1242-1.3168-.0057-2.6456.3494-3.9181.3031-1.0685.8628-2.4463 1.9117-3.5148l-.303-.3327c-1.3977 1.1404-1.6322 1.5675-2.8444 3.1822-1.0019.2143-1.8425.8077-3.2637.8077-.9092 0-1.8647-.1424-3.4035-.8789.4447-.7837.7459-1.4956.8158-2.8016h-.4664c-.932 3.8708-4.61568 4.5115-6.20084 4.7969-1.39774.2375-1.88822 1.306-1.88822 2.3506-.00216.1034.0055.2068.02287.3087H2.06989C2.02322 27.987 1.99987 27.638 2 27.2886c0-.7598.04638-1.5202.39645-2.1609 1.26177-2.1629 2.31008-2.9706 2.31008-4.6313 0-1.7098-1.23573-2.8476-1.30562-2.9207.72301-.121.97969-.8329 1.4689-1.5927 1.07244-1.6866 2.86727-1.9474 3.79994-1.9474.90916 0 1.44535.1185 2.35455.1185 4.1729 0 6.2714-4.82091 11.3534-4.82091 3.2174 0 5.4321 2.37521 5.7581 5.43631l.0699.024c.4199-.4751 1.1436-1.1164 1.9816-1.4012 0 .1191-.0229.2589-.0229.4039 0 2.2813.6061 4.7516 3.2167 4.7516Zm-21.914 9.7834H9.34575c-.72238-.6886-1.18872-1.7331-1.30562-2.3298 1.30561-.5695 1.88885-.9973 2.61127-1.7099l.4199.3327c-.2652.4692-.4021 1.0022-.3964 1.5435 0 .5249 0 .8336.7922 2.1635Zm12.7525 0h-1.9118c0-2.612.7459-3.5381 1.8184-4.5833l.3265.2589c-.4447.9973-.4898 1.6859-.4898 2.3512 0 .8575.0934 1.427.2567 1.9732Z"/>
    <path fill="#121212" d="M48.4088 30V14h3.328v1.696c.5546-.6613 1.2373-1.184 2.048-1.568.8106-.384 1.6853-.576 2.624-.576.5973 0 1.1893.08 1.776.24l-1.328 3.36c-.416-.16-.832-.24-1.248-.24-.704 0-1.3494.176-1.936.528-.5867.3413-1.056.8053-1.408 1.392-.352.5867-.528 1.2373-.528 1.952V30h-3.328Zm27.2737-10.032V30h-3.328v-9.216c0-.7147-.176-1.3653-.528-1.952-.3413-.5867-.8053-1.0507-1.392-1.392-.576-.352-1.2267-.528-1.952-.528-.704 0-1.3493.176-1.936.528-.5867.3413-1.056.8053-1.408 1.392-.352.5867-.528 1.2373-.528 1.952V30h-3.328V6h3.328v9.696c.5547-.6613 1.2373-1.184 2.048-1.568.8107-.384 1.6853-.576 2.624-.576 1.184 0 2.2613.288 3.232.864.9707.576 1.7387 1.3493 2.304 2.32.576.9707.864 2.048.864 3.232ZM80.1563 14h3.328v16h-3.328V14Zm1.696-2.32c-.512 0-.9387-.1653-1.28-.496-.3414-.3307-.512-.7467-.512-1.248 0-.49067.1706-.90133.512-1.232.3413-.34133.7626-.512 1.264-.512.4906 0 .9066.17067 1.248.512.3413.33067.512.74133.512 1.232 0 .5013-.1707.9173-.512 1.248-.3307.3307-.7414.496-1.232.496Zm21.0157 8.288V30h-3.3285v-9.216c0-.7147-.176-1.3653-.528-1.952-.3413-.5867-.8053-1.0507-1.392-1.392-.576-.352-1.2267-.528-1.952-.528-.704 0-1.3493.176-1.936.528-.5867.3413-1.056.8053-1.408 1.392-.352.5867-.528 1.2373-.528 1.952V30h-3.328V14h3.328v1.696c.5547-.6613 1.2373-1.184 2.048-1.568.8107-.384 1.6853-.576 2.624-.576 1.184 0 2.2613.288 3.232.864.9705.576 1.7385 1.3493 2.3045 2.32.576.9707.864 2.048.864 3.232Zm11.201 10.448c-1.472 0-2.816-.3787-4.032-1.136-1.206-.7573-2.171-1.7707-2.896-3.04-.715-1.28-1.072-2.6933-1.072-4.24 0-1.1733.208-2.2667.624-3.28.416-1.024.986-1.92 1.712-2.688.736-.7787 1.589-1.3867 2.56-1.824.97-.4373 2.005-.656 3.104-.656 1.472 0 2.81.3787 4.016 1.136 1.216.7573 2.181 1.776 2.896 3.056.725 1.28 1.088 2.6987 1.088 4.256 0 1.1627-.208 2.2507-.624 3.264-.416 1.0133-.992 1.9093-1.728 2.688-.726.768-1.574 1.3707-2.544 1.808-.96.4373-1.995.656-3.104.656Zm0-3.328c.885 0 1.68-.2347 2.384-.704.704-.4693 1.258-1.088 1.664-1.856.416-.7787.624-1.6213.624-2.528 0-.928-.214-1.7813-.64-2.56-.416-.7787-.976-1.3973-1.68-1.856-.704-.4693-1.488-.704-2.352-.704-.875 0-1.67.2347-2.384.704-.704.4693-1.264 1.0933-1.68 1.872-.406.7787-.608 1.6267-.608 2.544 0 .9493.213 1.808.64 2.576.426.768.992 1.3813 1.696 1.84.714.448 1.493.672 2.336.672Zm12.937 3.328c-.49 0-.906-.1707-1.248-.512-.33-.3413-.496-.7573-.496-1.248 0-.48.166-.8907.496-1.232.342-.3413.758-.512 1.248-.512.491 0 .907.1707 1.248.512.342.3413.512.752.512 1.232 0 .4907-.17.9067-.512 1.248-.341.3413-.757.512-1.248.512Zm11.007-20.048V14h4.512v3.328h-4.512V30h-3.328V17.328h-1.904V14h1.904v-3.632c0-.87467.214-1.66933.64-2.384.427-.72533.998-1.30134 1.712-1.728.726-.42667 1.531-.64 2.416-.64.64 0 1.264.128 1.872.384.608.256 1.152.65067 1.632 1.184l-2.384 2.352c-.117-.192-.282-.336-.496-.432-.202-.10667-.41-.16-.624-.16-.394 0-.736.13867-1.024.416-.277.27733-.416.61333-.416 1.008ZM146.275 14h3.328v16h-3.328V14Zm1.696-2.32c-.512 0-.939-.1653-1.28-.496-.341-.3307-.512-.7467-.512-1.248 0-.49067.171-.90133.512-1.232.341-.34133.763-.512 1.264-.512.491 0 .907.17067 1.248.512.341.33067.512.74133.512 1.232 0 .5013-.171.9173-.512 1.248-.331.3307-.741.496-1.232.496Z"/>
    <defs>
        <radialGradient id="logo-light-rhino" cx="0" cy="0" r="1" gradientTransform="rotate(27.1811 -18.30332158 8.80308458) scale(41.5933 33.8035)" gradientUnits="userSpaceOnUse">
            <stop stop-color="#FFDE7E"/>
            <stop offset="1" stop-color="#FF8A00"/>
        </radialGradient>
    </defs>
</svg>