<svg width="7390" height="1268" viewBox="0 0 7390 1268" fill="none" xmlns="http://www.w3.org/2000/svg">
<path d="M2582.62 1145V122.274H2970.1C3042.13 122.274 3104.07 134.758 3155.92 159.726C3207.78 184.694 3247.63 220.706 3275.48 267.761C3304.29 313.855 3318.7 368.593 3318.7 431.973C3318.7 478.068 3307.65 519.361 3285.56 555.853C3264.44 591.384 3237.07 619.713 3203.46 640.84C3169.85 661.966 3134.8 673.49 3098.3 675.411L3089.66 662.446C3152.08 662.446 3201.06 676.851 3236.59 705.66C3273.08 734.469 3294.21 780.564 3299.97 843.944L3328.78 1145H3203.46L3177.53 856.908C3173.69 814.655 3158.32 783.445 3131.44 763.279C3105.51 743.112 3062.77 733.029 3003.23 733.029H2706.5V1145H2582.62ZM2706.5 612.03H2985.95C3048.37 612.03 3097.82 596.185 3134.32 564.495C3170.81 532.805 3189.05 487.671 3189.05 429.092C3189.05 369.553 3170.33 323.939 3132.88 292.249C3095.42 259.598 3041.17 243.273 2970.1 243.273H2706.5V612.03ZM3533.14 1145V122.274H3654.14V550.091L3639.74 547.21C3649.34 504.956 3665.67 470.385 3688.71 443.497C3711.76 416.608 3740.09 396.922 3773.7 384.438C3807.31 370.994 3844.28 364.271 3884.62 364.271C3939.35 364.271 3985.45 376.755 4022.9 401.723C4061.31 425.731 4090.12 459.822 4109.33 503.996C4129.49 547.21 4139.58 597.146 4139.58 653.804V1145H4018.58V688.375C4018.58 614.431 4005.13 559.694 3978.24 524.162C3952.32 488.631 3912.46 470.865 3858.69 470.865C3797.23 470.865 3747.77 489.591 3710.32 527.043C3672.87 564.495 3654.14 618.753 3654.14 689.815V1145H3533.14ZM4356.06 1145V381.557H4477.06V1145H4356.06ZM4353.18 261.999V120.834H4479.94V261.999H4353.18ZM4721.8 1145V381.557H4832.72L4837.04 576.019L4822.63 563.055C4832.24 517.92 4849.04 480.949 4873.05 452.139C4897.06 422.37 4925.87 400.283 4959.48 385.878C4994.05 371.474 5031.02 364.271 5070.39 364.271C5128.97 364.271 5176.99 377.236 5214.44 403.164C5252.85 429.092 5281.18 464.143 5299.43 508.317C5318.63 551.531 5328.24 600.027 5328.24 653.804V1145H5207.24V688.375C5207.24 641.32 5201.48 601.947 5189.95 570.257C5179.39 537.607 5162.1 513.119 5138.1 496.794C5114.09 479.508 5082.88 470.865 5044.47 470.865C4985.89 470.865 4937.39 489.591 4898.98 527.043C4861.53 563.535 4842.8 617.312 4842.8 688.375V1145H4721.8ZM5840.08 1162.29C5769.98 1162.29 5708.52 1145.96 5655.7 1113.31C5602.89 1080.66 5562.07 1034.56 5533.26 975.026C5504.46 914.527 5490.05 843.944 5490.05 763.279C5490.05 681.653 5504.46 611.07 5533.26 551.531C5562.07 491.992 5602.89 445.897 5655.7 413.247C5708.52 380.597 5769.98 364.271 5840.08 364.271C5910.18 364.271 5971.16 380.597 6023.02 413.247C6075.84 445.897 6116.65 491.992 6145.46 551.531C6174.27 611.07 6188.67 681.653 6188.67 763.279C6188.67 843.944 6174.27 914.527 6145.46 975.026C6116.65 1034.56 6075.84 1080.66 6023.02 1113.31C5971.16 1145.96 5910.18 1162.29 5840.08 1162.29ZM5840.08 1047.05C5910.18 1047.05 5964.44 1022.08 6002.85 972.145C6042.23 921.249 6061.91 851.627 6061.91 763.279C6061.91 674.93 6042.23 605.788 6002.85 555.853C5964.44 504.956 5910.18 479.508 5840.08 479.508C5769.98 479.508 5715.24 504.956 5675.87 555.853C5636.5 605.788 5616.81 674.93 5616.81 763.279C5616.81 851.627 5636.5 921.249 5675.87 972.145C5715.24 1022.08 5769.98 1047.05 5840.08 1047.05ZM6315.78 1145V982.228H6478.55V1145H6315.78ZM6681.68 1145V312.415C6681.68 255.757 6698.01 210.142 6730.66 175.571C6763.31 140.04 6814.2 122.274 6883.35 122.274H7004.34V228.868H6891.99C6862.22 228.868 6839.65 237.031 6824.29 253.356C6809.88 269.681 6802.68 292.249 6802.68 321.058V1145H6681.68ZM6577.97 488.151V381.557H6994.26V488.151H6577.97ZM7152.71 1145V381.557H7273.71V1145H7152.71ZM7149.83 261.999V120.834H7276.59V261.999H7149.83Z" fill="#221E15"/>
<path d="M522.135 1150.99H0V913.844C0 474.608 356.071 118.537 795.306 118.537H968.886C1048.71 118.537 1113.43 183.251 1113.43 263.08V335.237C1113.43 494.959 1242.91 624.439 1402.63 624.439C1466.52 624.439 1518.31 676.231 1518.31 740.12V1082.31C1518.31 1120.24 1487.56 1150.99 1449.63 1150.99H1082.82C1067.22 1150.99 1054.57 1138.34 1054.57 1122.74V918.191C1054.57 771.161 935.384 651.971 788.354 651.971H745.833C622.288 651.971 522.135 752.124 522.135 875.669V1150.99Z" fill="#E96C19"/>
<path d="M1948.14 118.554H2307.83V248.079C2307.83 567.863 2048.6 827.1 1728.81 827.1L1670.87 827.1C1638.92 827.1 1613.01 801.193 1613.01 769.235V765.58C1613.01 607.81 1485.11 479.912 1327.34 479.912C1280.01 479.912 1241.64 441.543 1241.64 394.212V178.78C1241.64 145.518 1268.61 118.554 1301.87 118.554H1593.63C1604.33 118.554 1613.01 127.233 1613.01 137.939V293.452C1613.01 385.996 1688.03 461.018 1780.58 461.018H1794.62C1879.41 461.018 1948.14 392.285 1948.14 307.499V118.554Z" fill="#E96C19"/>
</svg>
